<svg width="41" height="41" viewBox="0 0 41 41" fill="none" xmlns="http://www.w3.org/2000/svg">
<path opacity="0.210542" fill-rule="evenodd" clip-rule="evenodd" d="M39.215 8.8094C41.1676 6.85678 41.1676 3.69095 39.215 1.73833C37.2624 -0.214292 34.0965 -0.214292 32.1439 1.73833L20.4767 13.4056L8.80939 1.73833C6.85677 -0.214292 3.69095 -0.214292 1.73832 1.73833C-0.214296 3.69095 -0.214297 6.85678 1.73832 8.8094L13.4056 20.4767L1.73832 32.1439C-0.214298 34.0965 -0.214296 37.2624 1.73832 39.215C3.69095 41.1676 6.85677 41.1676 8.80939 39.215L20.4767 27.5477L32.1439 39.215C34.0965 41.1676 37.2624 41.1676 39.215 39.215C41.1676 37.2624 41.1676 34.0965 39.215 32.1439L27.5477 20.4767L39.215 8.8094Z" fill="url(#paint0_linear_0_285)"/>
<defs>
<linearGradient id="paint0_linear_0_285" x1="-10.0917" y1="-26.9606" x2="-23.4024" y2="50.3438" gradientUnits="userSpaceOnUse">
<stop stop-color="#FF52C1"/>
<stop offset="1" stop-color="#9952FF"/>
</linearGradient>
</defs>
</svg>
